<?xml version="1.0" encoding="UTF-8" standalone="no"?>
<!DOCTYPE svg PUBLIC "-//W3C//DTD SVG 1.1//EN" "http://www.w3.org/Graphics/SVG/1.1/DTD/svg11.dtd">
<svg width="100%" height="100%" viewBox="0 0 3508 2481" version="1.1" xmlns="http://www.w3.org/2000/svg" xmlns:xlink="http://www.w3.org/1999/xlink" xml:space="preserve" xmlns:serif="http://www.serif.com/" style="fill-rule:evenodd;clip-rule:evenodd;stroke-miterlimit:10;">
    <g transform="matrix(-3.22834,0.693259,0.693259,3.22834,575.464,184.949)">
        <path d="M-21.36,2.268L-1.961,2.268L-0.241,-2.268L-3.671,-5.697L-21.36,2.268Z" style="fill:rgb(0,174,239);fill-rule:nonzero;"/>
    </g>
    <g transform="matrix(2.77267,1.79308,1.79308,-2.77267,547.72,229.489)">
        <path d="M-5.865,-1.731L-1.014,-1.731L5.864,-19.868L-7.855,-6.155L-5.865,-1.731Z" style="fill:rgb(0,174,239);fill-rule:nonzero;"/>
    </g>
    <g transform="matrix(0.693364,3.22832,3.22832,-0.693364,563.219,88.0061)">
        <path d="M-10.559,-8.531L8.837,-8.531L10.558,-13.067L7.127,-16.497L-10.559,-8.531Z" style="fill:rgb(0,174,239);fill-rule:nonzero;"/>
    </g>
    <g transform="matrix(1.79308,2.77267,2.77267,-1.79308,472.32,192.796)">
        <path d="M-7.151,4.995L-2.301,4.995L-0.311,0.571L-14.029,-13.141L-7.151,4.995Z" style="fill:rgb(0,174,239);fill-rule:nonzero;"/>
    </g>
    <g transform="matrix(3.30194,0,0,3.30194,611.539,260.631)">
        <path d="M0,-50.377L-16.284,-25.19L0,0L-25.19,-16.284L-50.381,0L-34.097,-25.19L-50.381,-50.377L-25.19,-34.096L0,-50.377Z" style="fill:rgb(0,174,239);fill-rule:nonzero;"/>
    </g>
    <g transform="matrix(0,-3.30194,-3.30194,0,528.362,33)">
        <circle cx="-43.75" cy="0" r="43.75" style="fill:none;stroke:rgb(0,174,239);stroke-width:7.57px;"/>
    </g>
    <g transform="matrix(0.792465,0,0,0.792465,-561.833,-1204.01)">
        <g transform="matrix(125,0,0,125,744.445,2119.53)">
            <path d="M0.591,-0.509C0.591,-0.442 0.57,-0.387 0.529,-0.346C0.487,-0.304 0.417,-0.283 0.319,-0.282L0.222,-0.282L0.222,-0.092L0.318,-0.092L0.318,-0L0.019,-0L0.019,-0.092L0.111,-0.092L0.111,-0.644L0.019,-0.644L0.019,-0.736L0.293,-0.736C0.367,-0.736 0.426,-0.728 0.469,-0.712C0.512,-0.696 0.544,-0.672 0.563,-0.639C0.581,-0.606 0.591,-0.563 0.591,-0.509ZM0.478,-0.511C0.478,-0.557 0.465,-0.591 0.438,-0.612C0.41,-0.633 0.364,-0.644 0.299,-0.644L0.222,-0.644L0.222,-0.371L0.291,-0.371C0.336,-0.371 0.372,-0.375 0.399,-0.384C0.426,-0.392 0.446,-0.406 0.459,-0.427C0.472,-0.447 0.478,-0.475 0.478,-0.511Z" style="fill-rule:nonzero;"/>
        </g>
        <g transform="matrix(125,0,0,125,821.715,2119.53)">
            <path d="M0.577,-0.256C0.577,-0.206 0.565,-0.16 0.542,-0.119C0.518,-0.078 0.485,-0.045 0.444,-0.021C0.403,0.003 0.358,0.015 0.308,0.015C0.257,0.015 0.21,0.003 0.169,-0.021C0.128,-0.045 0.095,-0.078 0.073,-0.119C0.05,-0.16 0.038,-0.206 0.038,-0.256C0.038,-0.308 0.05,-0.354 0.073,-0.396C0.095,-0.437 0.127,-0.469 0.168,-0.492C0.209,-0.515 0.256,-0.527 0.308,-0.527C0.359,-0.527 0.404,-0.515 0.445,-0.49C0.486,-0.465 0.519,-0.432 0.542,-0.391C0.565,-0.35 0.577,-0.305 0.577,-0.256ZM0.308,-0.083C0.338,-0.083 0.366,-0.091 0.391,-0.106C0.416,-0.122 0.435,-0.143 0.449,-0.169C0.463,-0.196 0.47,-0.225 0.47,-0.256C0.47,-0.286 0.463,-0.315 0.449,-0.341C0.435,-0.368 0.416,-0.389 0.391,-0.405C0.366,-0.421 0.338,-0.429 0.307,-0.429C0.277,-0.429 0.25,-0.421 0.225,-0.406C0.2,-0.39 0.18,-0.368 0.166,-0.342C0.151,-0.315 0.144,-0.286 0.144,-0.256C0.144,-0.225 0.151,-0.197 0.166,-0.17C0.18,-0.143 0.2,-0.122 0.225,-0.106C0.25,-0.091 0.278,-0.083 0.308,-0.083Z" style="fill-rule:nonzero;"/>
        </g>
        <g transform="matrix(125,0,0,125,898.62,2119.53)">
            <path d="M0.165,-0.423L0.262,-0.114L0.36,-0.423L0.305,-0.423L0.305,-0.513L0.552,-0.513L0.552,-0.423L0.495,-0.423L0.594,-0.114L0.693,-0.423L0.622,-0.423L0.622,-0.513L0.853,-0.513L0.853,-0.423L0.779,-0.423L0.642,0.009L0.547,0.009L0.429,-0.362L0.31,0.009L0.216,0.009L0.078,-0.423L0.016,-0.423L0.016,-0.513L0.232,-0.513L0.232,-0.423L0.165,-0.423Z" style="fill-rule:nonzero;"/>
        </g>
        <g transform="matrix(125,0,0,125,1007.26,2119.53)">
            <path d="M0.58,-0.231L0.15,-0.231C0.156,-0.182 0.175,-0.143 0.207,-0.115C0.239,-0.086 0.278,-0.072 0.324,-0.072C0.358,-0.072 0.389,-0.079 0.418,-0.093C0.447,-0.107 0.472,-0.128 0.491,-0.157L0.58,-0.117C0.552,-0.074 0.515,-0.041 0.47,-0.018C0.425,0.004 0.375,0.015 0.322,0.015C0.266,0.015 0.217,0.004 0.174,-0.02C0.131,-0.043 0.098,-0.075 0.074,-0.116C0.05,-0.158 0.038,-0.204 0.038,-0.256C0.038,-0.307 0.05,-0.354 0.073,-0.395C0.097,-0.436 0.129,-0.469 0.17,-0.492C0.211,-0.515 0.257,-0.527 0.306,-0.527C0.36,-0.527 0.407,-0.515 0.448,-0.491C0.488,-0.467 0.519,-0.433 0.542,-0.388C0.566,-0.344 0.578,-0.292 0.58,-0.231ZM0.308,-0.443C0.27,-0.443 0.237,-0.43 0.208,-0.405C0.179,-0.379 0.161,-0.345 0.153,-0.303L0.474,-0.303C0.465,-0.345 0.445,-0.379 0.414,-0.405C0.383,-0.43 0.348,-0.443 0.308,-0.443Z" style="fill-rule:nonzero;"/>
        </g>
        <g transform="matrix(125,0,0,125,1084.53,2119.53)">
            <path d="M0.225,-0.206L0.225,-0.09L0.337,-0.09L0.337,-0L0.022,-0L0.022,-0.09L0.125,-0.09L0.125,-0.423L0.022,-0.423L0.022,-0.513L0.205,-0.513L0.205,-0.397C0.226,-0.443 0.251,-0.475 0.281,-0.493C0.312,-0.511 0.355,-0.52 0.412,-0.52L0.435,-0.52L0.435,-0.418L0.413,-0.418C0.358,-0.418 0.318,-0.411 0.291,-0.396C0.264,-0.382 0.247,-0.361 0.238,-0.332C0.229,-0.303 0.225,-0.261 0.225,-0.206Z" style="fill-rule:nonzero;"/>
        </g>
        <g transform="matrix(125,0,0,125,1133.67,2119.53)">
            <path d="M0.58,-0.231L0.15,-0.231C0.156,-0.182 0.175,-0.143 0.207,-0.115C0.239,-0.086 0.278,-0.072 0.324,-0.072C0.358,-0.072 0.389,-0.079 0.418,-0.093C0.447,-0.107 0.472,-0.128 0.491,-0.157L0.58,-0.117C0.552,-0.074 0.515,-0.041 0.47,-0.018C0.425,0.004 0.375,0.015 0.322,0.015C0.266,0.015 0.217,0.004 0.174,-0.02C0.131,-0.043 0.098,-0.075 0.074,-0.116C0.05,-0.158 0.038,-0.204 0.038,-0.256C0.038,-0.307 0.05,-0.354 0.073,-0.395C0.097,-0.436 0.129,-0.469 0.17,-0.492C0.211,-0.515 0.257,-0.527 0.306,-0.527C0.36,-0.527 0.407,-0.515 0.448,-0.491C0.488,-0.467 0.519,-0.433 0.542,-0.388C0.566,-0.344 0.578,-0.292 0.58,-0.231ZM0.308,-0.443C0.27,-0.443 0.237,-0.43 0.208,-0.405C0.179,-0.379 0.161,-0.345 0.153,-0.303L0.474,-0.303C0.465,-0.345 0.445,-0.379 0.414,-0.405C0.383,-0.43 0.348,-0.443 0.308,-0.443Z" style="fill-rule:nonzero;"/>
        </g>
        <g transform="matrix(125,0,0,125,1210.94,2119.53)">
            <path d="M0.666,-0.09L0.666,-0L0.473,-0L0.473,-0.075C0.422,-0.019 0.36,0.009 0.289,0.009C0.24,0.009 0.196,-0.003 0.158,-0.026C0.12,-0.049 0.091,-0.081 0.07,-0.121C0.049,-0.161 0.038,-0.205 0.038,-0.254C0.038,-0.303 0.049,-0.349 0.072,-0.391C0.094,-0.432 0.125,-0.465 0.164,-0.49C0.203,-0.515 0.246,-0.527 0.292,-0.527C0.325,-0.527 0.357,-0.52 0.386,-0.507C0.416,-0.493 0.445,-0.472 0.473,-0.444L0.473,-0.647L0.374,-0.647L0.374,-0.736L0.573,-0.736L0.573,-0.09L0.666,-0.09ZM0.308,-0.081C0.339,-0.081 0.368,-0.089 0.393,-0.106C0.418,-0.123 0.437,-0.145 0.452,-0.172C0.466,-0.2 0.473,-0.23 0.473,-0.261C0.473,-0.293 0.466,-0.322 0.452,-0.349C0.437,-0.375 0.417,-0.396 0.392,-0.411C0.367,-0.426 0.338,-0.434 0.306,-0.434C0.275,-0.434 0.248,-0.426 0.223,-0.409C0.199,-0.393 0.18,-0.371 0.166,-0.344C0.152,-0.317 0.145,-0.288 0.145,-0.257C0.145,-0.224 0.152,-0.194 0.167,-0.167C0.181,-0.14 0.2,-0.119 0.225,-0.104C0.25,-0.089 0.278,-0.081 0.308,-0.081Z" style="fill-rule:nonzero;"/>
        </g>
        <g transform="matrix(125,0,0,125,1329.59,2119.53)">
            <path d="M0.544,-0.546C0.544,-0.511 0.536,-0.481 0.521,-0.455C0.506,-0.428 0.483,-0.408 0.454,-0.394C0.495,-0.379 0.527,-0.357 0.549,-0.325C0.571,-0.294 0.582,-0.257 0.582,-0.215C0.582,-0.145 0.556,-0.092 0.505,-0.055C0.454,-0.018 0.377,-0 0.275,-0L0.02,-0L0.02,-0.092L0.111,-0.092L0.111,-0.644L0.02,-0.644L0.02,-0.736L0.279,-0.736C0.368,-0.736 0.435,-0.72 0.479,-0.689C0.522,-0.658 0.544,-0.61 0.544,-0.546ZM0.434,-0.54C0.434,-0.575 0.422,-0.601 0.397,-0.618C0.373,-0.635 0.339,-0.644 0.294,-0.644L0.221,-0.644L0.221,-0.429L0.295,-0.429C0.388,-0.429 0.434,-0.466 0.434,-0.54ZM0.469,-0.217C0.469,-0.257 0.455,-0.288 0.426,-0.308C0.397,-0.328 0.353,-0.338 0.292,-0.338L0.221,-0.338L0.221,-0.092L0.265,-0.092C0.309,-0.092 0.345,-0.094 0.374,-0.1C0.402,-0.105 0.425,-0.117 0.443,-0.135C0.46,-0.153 0.469,-0.18 0.469,-0.217Z" style="fill-rule:nonzero;"/>
        </g>
        <g transform="matrix(125,0,0,125,1406.62,2119.53)">
            <path d="M0.212,-0.423L0.323,-0.133L0.431,-0.423L0.363,-0.423L0.363,-0.513L0.608,-0.513L0.608,-0.423L0.532,-0.423L0.279,0.23L0.108,0.23L0.108,0.142L0.209,0.142L0.27,-0.009L0.102,-0.423L0.016,-0.423L0.016,-0.513L0.273,-0.513L0.273,-0.423L0.212,-0.423Z" style="fill-rule:nonzero;"/>
        </g>
        <g transform="matrix(125,0,0,125,1518.49,2119.53)">
            <path d="M0.591,-0.509C0.591,-0.442 0.57,-0.387 0.529,-0.346C0.487,-0.304 0.417,-0.283 0.319,-0.282L0.222,-0.282L0.222,-0.092L0.318,-0.092L0.318,-0L0.019,-0L0.019,-0.092L0.111,-0.092L0.111,-0.644L0.019,-0.644L0.019,-0.736L0.293,-0.736C0.367,-0.736 0.426,-0.728 0.469,-0.712C0.512,-0.696 0.544,-0.672 0.563,-0.639C0.581,-0.606 0.591,-0.563 0.591,-0.509ZM0.478,-0.511C0.478,-0.557 0.465,-0.591 0.438,-0.612C0.41,-0.633 0.364,-0.644 0.299,-0.644L0.222,-0.644L0.222,-0.371L0.291,-0.371C0.336,-0.371 0.372,-0.375 0.399,-0.384C0.426,-0.392 0.446,-0.406 0.459,-0.427C0.472,-0.447 0.478,-0.475 0.478,-0.511Z" style="fill-rule:nonzero;"/>
        </g>
        <g transform="matrix(125,0,0,125,1592.04,2119.53)">
            <path d="M0.475,-0.332L0.475,-0.09L0.561,-0.09L0.561,-0L0.386,-0L0.386,-0.063C0.337,-0.015 0.283,0.009 0.223,0.009C0.192,0.009 0.163,0.001 0.136,-0.013C0.11,-0.028 0.089,-0.047 0.073,-0.072C0.058,-0.097 0.05,-0.124 0.05,-0.154C0.05,-0.186 0.059,-0.215 0.076,-0.24C0.093,-0.265 0.117,-0.285 0.146,-0.298C0.176,-0.312 0.206,-0.319 0.236,-0.319C0.286,-0.319 0.333,-0.304 0.376,-0.275L0.376,-0.33C0.376,-0.37 0.368,-0.399 0.351,-0.416C0.334,-0.433 0.306,-0.442 0.267,-0.442C0.24,-0.442 0.217,-0.437 0.198,-0.427C0.18,-0.417 0.165,-0.402 0.153,-0.382L0.056,-0.406C0.078,-0.446 0.107,-0.477 0.145,-0.497C0.182,-0.517 0.226,-0.527 0.277,-0.527C0.346,-0.527 0.396,-0.511 0.427,-0.48C0.459,-0.449 0.475,-0.399 0.475,-0.332ZM0.237,-0.069C0.286,-0.069 0.333,-0.09 0.376,-0.131L0.376,-0.191C0.332,-0.225 0.288,-0.242 0.244,-0.242C0.217,-0.242 0.194,-0.234 0.175,-0.217C0.156,-0.2 0.146,-0.179 0.146,-0.154C0.146,-0.129 0.154,-0.109 0.171,-0.093C0.188,-0.077 0.21,-0.069 0.237,-0.069Z" style="fill-rule:nonzero;"/>
        </g>
        <g transform="matrix(125,0,0,125,1664.55,2119.53)">
            <path d="M0.225,-0.206L0.225,-0.09L0.337,-0.09L0.337,-0L0.022,-0L0.022,-0.09L0.125,-0.09L0.125,-0.423L0.022,-0.423L0.022,-0.513L0.205,-0.513L0.205,-0.397C0.226,-0.443 0.251,-0.475 0.281,-0.493C0.312,-0.511 0.355,-0.52 0.412,-0.52L0.435,-0.52L0.435,-0.418L0.413,-0.418C0.358,-0.418 0.318,-0.411 0.291,-0.396C0.264,-0.382 0.247,-0.361 0.238,-0.332C0.229,-0.303 0.225,-0.261 0.225,-0.206Z" style="fill-rule:nonzero;"/>
        </g>
        <g transform="matrix(125,0,0,125,1721.19,2119.53)">
            <path d="M0.295,-0.513L0.295,-0.423L0.201,-0.423L0.201,-0.154C0.201,-0.126 0.204,-0.108 0.21,-0.099C0.216,-0.091 0.227,-0.087 0.241,-0.087C0.259,-0.087 0.277,-0.09 0.295,-0.096L0.295,-0.005C0.264,0.004 0.238,0.009 0.219,0.009C0.177,0.009 0.146,-0.002 0.128,-0.023C0.109,-0.045 0.1,-0.081 0.1,-0.133L0.1,-0.423L0.033,-0.423L0.033,-0.513L0.1,-0.513L0.1,-0.591L0.201,-0.683L0.201,-0.513L0.295,-0.513Z" style="fill-rule:nonzero;"/>
        </g>
        <g transform="matrix(125,0,0,125,1761.96,2119.53)">
            <path d="M0.212,-0.686C0.212,-0.669 0.206,-0.655 0.194,-0.643C0.182,-0.631 0.167,-0.625 0.151,-0.625C0.134,-0.625 0.12,-0.631 0.108,-0.643C0.097,-0.655 0.091,-0.669 0.091,-0.686C0.091,-0.703 0.097,-0.717 0.108,-0.729C0.12,-0.741 0.134,-0.747 0.151,-0.747C0.168,-0.747 0.183,-0.741 0.194,-0.729C0.206,-0.718 0.212,-0.703 0.212,-0.686ZM0.284,-0.09L0.284,-0L0.025,-0L0.025,-0.09L0.105,-0.09L0.105,-0.423L0.025,-0.423L0.025,-0.513L0.206,-0.513L0.206,-0.09L0.284,-0.09Z" style="fill-rule:nonzero;"/>
        </g>
        <g transform="matrix(125,0,0,125,1800.23,2119.53)">
            <path d="M0.434,-0.476L0.434,-0.513L0.524,-0.513L0.524,-0.319L0.434,-0.319C0.43,-0.356 0.415,-0.385 0.389,-0.405C0.363,-0.424 0.333,-0.434 0.299,-0.434C0.27,-0.434 0.243,-0.426 0.22,-0.411C0.197,-0.395 0.179,-0.374 0.166,-0.347C0.153,-0.32 0.147,-0.291 0.147,-0.26C0.147,-0.206 0.161,-0.162 0.19,-0.128C0.219,-0.094 0.256,-0.077 0.303,-0.077C0.376,-0.077 0.427,-0.111 0.457,-0.178L0.541,-0.138C0.494,-0.036 0.413,0.015 0.299,0.015C0.248,0.015 0.202,0.003 0.163,-0.021C0.123,-0.045 0.092,-0.078 0.071,-0.12C0.049,-0.162 0.038,-0.209 0.038,-0.26C0.038,-0.31 0.049,-0.355 0.071,-0.396C0.093,-0.438 0.123,-0.469 0.162,-0.492C0.2,-0.515 0.243,-0.527 0.29,-0.527C0.346,-0.527 0.394,-0.51 0.434,-0.476Z" style="fill-rule:nonzero;"/>
        </g>
        <g transform="matrix(125,0,0,125,1870.85,2119.53)">
            <path d="M0.289,-0.09L0.289,-0L0.019,-0L0.019,-0.09L0.11,-0.09L0.11,-0.647L0.019,-0.647L0.019,-0.736L0.211,-0.736L0.211,-0.09L0.289,-0.09Z" style="fill-rule:nonzero;"/>
        </g>
        <g transform="matrix(125,0,0,125,1910.95,2119.53)">
            <path d="M0.58,-0.231L0.15,-0.231C0.156,-0.182 0.175,-0.143 0.207,-0.115C0.239,-0.086 0.278,-0.072 0.324,-0.072C0.358,-0.072 0.389,-0.079 0.418,-0.093C0.447,-0.107 0.472,-0.128 0.491,-0.157L0.58,-0.117C0.552,-0.074 0.515,-0.041 0.47,-0.018C0.425,0.004 0.375,0.015 0.322,0.015C0.266,0.015 0.217,0.004 0.174,-0.02C0.131,-0.043 0.098,-0.075 0.074,-0.116C0.05,-0.158 0.038,-0.204 0.038,-0.256C0.038,-0.307 0.05,-0.354 0.073,-0.395C0.097,-0.436 0.129,-0.469 0.17,-0.492C0.211,-0.515 0.257,-0.527 0.306,-0.527C0.36,-0.527 0.407,-0.515 0.448,-0.491C0.488,-0.467 0.519,-0.433 0.542,-0.388C0.566,-0.344 0.578,-0.292 0.58,-0.231ZM0.308,-0.443C0.27,-0.443 0.237,-0.43 0.208,-0.405C0.179,-0.379 0.161,-0.345 0.153,-0.303L0.474,-0.303C0.465,-0.345 0.445,-0.379 0.414,-0.405C0.383,-0.43 0.348,-0.443 0.308,-0.443Z" style="fill-rule:nonzero;"/>
        </g>
        <g transform="matrix(125,0,0,125,1988.22,2119.53)">
            <rect x="0.093" y="-0.13" width="0.13" height="0.13" style="fill-rule:nonzero;"/>
        </g>
        <g transform="matrix(125,0,0,125,2027.71,2119.53)">
            <path d="M0.212,-0.686C0.212,-0.669 0.206,-0.655 0.194,-0.643C0.182,-0.631 0.167,-0.625 0.151,-0.625C0.134,-0.625 0.12,-0.631 0.108,-0.643C0.097,-0.655 0.091,-0.669 0.091,-0.686C0.091,-0.703 0.097,-0.717 0.108,-0.729C0.12,-0.741 0.134,-0.747 0.151,-0.747C0.168,-0.747 0.183,-0.741 0.194,-0.729C0.206,-0.718 0.212,-0.703 0.212,-0.686ZM0.284,-0.09L0.284,-0L0.025,-0L0.025,-0.09L0.105,-0.09L0.105,-0.423L0.025,-0.423L0.025,-0.513L0.206,-0.513L0.206,-0.09L0.284,-0.09Z" style="fill-rule:nonzero;"/>
        </g>
        <g transform="matrix(125,0,0,125,2065.98,2119.53)">
            <path d="M0.577,-0.256C0.577,-0.206 0.565,-0.16 0.542,-0.119C0.518,-0.078 0.485,-0.045 0.444,-0.021C0.403,0.003 0.358,0.015 0.308,0.015C0.257,0.015 0.21,0.003 0.169,-0.021C0.128,-0.045 0.095,-0.078 0.073,-0.119C0.05,-0.16 0.038,-0.206 0.038,-0.256C0.038,-0.308 0.05,-0.354 0.073,-0.396C0.095,-0.437 0.127,-0.469 0.168,-0.492C0.209,-0.515 0.256,-0.527 0.308,-0.527C0.359,-0.527 0.404,-0.515 0.445,-0.49C0.486,-0.465 0.519,-0.432 0.542,-0.391C0.565,-0.35 0.577,-0.305 0.577,-0.256ZM0.308,-0.083C0.338,-0.083 0.366,-0.091 0.391,-0.106C0.416,-0.122 0.435,-0.143 0.449,-0.169C0.463,-0.196 0.47,-0.225 0.47,-0.256C0.47,-0.286 0.463,-0.315 0.449,-0.341C0.435,-0.368 0.416,-0.389 0.391,-0.405C0.366,-0.421 0.338,-0.429 0.307,-0.429C0.277,-0.429 0.25,-0.421 0.225,-0.406C0.2,-0.39 0.18,-0.368 0.166,-0.342C0.151,-0.315 0.144,-0.286 0.144,-0.256C0.144,-0.225 0.151,-0.197 0.166,-0.17C0.18,-0.143 0.2,-0.122 0.225,-0.106C0.25,-0.091 0.278,-0.083 0.308,-0.083Z" style="fill-rule:nonzero;"/>
        </g>
    </g>
</svg>
